<?xml version="1.0" encoding="UTF-8" standalone="no"?>
<svg
   xmlns:osb="http://www.openswatchbook.org/uri/2009/osb"
   xmlns:dc="http://purl.org/dc/elements/1.1/"
   xmlns:cc="http://creativecommons.org/ns#"
   xmlns:rdf="http://www.w3.org/1999/02/22-rdf-syntax-ns#"
   xmlns:svg="http://www.w3.org/2000/svg"
   xmlns="http://www.w3.org/2000/svg"
   xmlns:sodipodi="http://sodipodi.sourceforge.net/DTD/sodipodi-0.dtd"
   xmlns:inkscape="http://www.inkscape.org/namespaces/inkscape"
   version="1.0"
   width="762.000000pt"
   height="348.000000pt"
   viewBox="0 0 762.000000 348.000000"
   preserveAspectRatio="xMidYMid meet"
   id="svg6735"
   sodipodi:docname="logo.svg"
   inkscape:version="1.0.2 (e86c8708, 2021-01-15)">
  <metadata
     id="metadata6741">
    <rdf:RDF>
      <cc:Work
         rdf:about="">
        <dc:format>image/svg+xml</dc:format>
        <dc:type
           rdf:resource="http://purl.org/dc/dcmitype/StillImage" />
        <dc:title></dc:title>
      </cc:Work>
    </rdf:RDF>
  </metadata>
  <defs
     id="defs6739">
    <linearGradient
       id="linearGradient9248"
       osb:paint="solid">
      <stop
         style="stop-color:#000000;stop-opacity:1;"
         offset="0"
         id="stop9246" />
    </linearGradient>
  </defs>
  <sodipodi:namedview
     pagecolor="#ffffff"
     bordercolor="#666666"
     borderopacity="1"
     objecttolerance="10"
     gridtolerance="10"
     guidetolerance="10"
     inkscape:pageopacity="0"
     inkscape:pageshadow="2"
     inkscape:window-width="1440"
     inkscape:window-height="791"
     id="namedview6737"
     showgrid="false"
     inkscape:zoom="1.1220472"
     inkscape:cx="336.4386"
     inkscape:cy="232"
     inkscape:window-x="0"
     inkscape:window-y="25"
     inkscape:window-maximized="0"
     inkscape:current-layer="svg6735" />
  <g
     transform="translate(0.000000,348.000000) scale(0.100000,-0.100000)"
     fill="#000000"
     stroke="none"
     id="g6733"
     style="fill-opacity:1;fill:#27336f">
    <path
       d="M3375 2943 c-392 -8 -938 -44 -1205 -79 -803 -104 -1332 -224 -1680 -382 -304 -137 -439 -256 -462 -409 -10 -66 -10 -73 16 -129 84 -183 363 -340 876 -492 162 -49 263 -73 447 -107 406 -77 561 -99 1053 -150 726 -74 1934 -76 2635 -4 415 42 670 74 805 99 58 10 121 22 140 25 229 39 482 96 645 147 72 22 145 44 163 50 50 14 216 81 316 127 170 79 310 192 362 292 22 43 28 68 29 119 0 58 -4 73 -35 124 -40 67 -98 122 -196 188 -219 146 -658 294 -1170 393 -115 23 -585 93 -764 114 -516 62 -1267 90 -1975 74z m-1715 -451 l65 -18 -2 -54 c-4 -81 -4 -81 -65 -58 -79 31 -207 31 -272 -1 -113 -55 -166 -148 -166 -289 0 -172 103 -285 272 -299 56 -5 84 -2 144 17 89 28 96 24 92 -59 l-3 -54 -65 -19 c-93 -28 -233 -26 -324 2 -84 26 -106 40 -169 99 -110 104 -153 281 -109 442 18 64 53 132 90 175 56 65 169 121 277 138 51 7 168 -4 235 -22z m371 -64 c1 -40 0 -200 -1 -355 l-2 -283 108 -2 c60 -2 135 -2 167 -1 65 2 71 -6 65 -88 l-3 -44 -247 -3 -248 -2 0 22 c0 13 0 136 -1 273 -1 138 -1 319 0 403 l1 152 80 0 80 0 1 -72z m581 70 c1 -2 4 -142 7 -313 6 -297 7 -312 28 -345 29 -46 54 -61 119 -67 76 -8 127 16 162 76 l27 46 5 300 5 300 78 3 77 3 0 -288 c0 -325 -7 -371 -65 -459 -44 -67 -116 -104 -218 -114 -198 -18 -325 54 -371 211 -18 58 -33 477 -22 582 l8 67 79 0 c43 0 80 -1 81 -2z m958 -1 c0 -2 41 -122 91 -267 50 -146 95 -278 99 -295 21 -75 28 -90 33 -75 3 8 12 35 21 60 8 25 35 99 59 165 105 283 119 322 133 368 l15 48 127 -3 127 -3 0 -420 0 -420 -65 -3 c-36 -1 -70 1 -77 5 -12 8 -21 208 -23 518 -1 88 -4 153 -7 145 -3 -8 -13 -34 -24 -57 -10 -24 -19 -46 -19 -49 0 -12 -179 -507 -193 -534 -12 -23 -18 -25 -87 -25 l-74 0 -12 40 c-23 73 -118 340 -179 500 -14 39 -32 86 -38 105 -10 29 -13 -25 -17 -305 l-5 -340 -72 -3 -73 -3 0 426 0 425 130 0 c72 0 130 -1 130 -3z m1292 -8 c71 -15 125 -46 149 -86 22 -36 36 -134 25 -177 -8 -33 -61 -93 -98 -112 l-30 -16 39 -19 c87 -43 118 -94 117 -194 0 -112 -50 -175 -169 -211 -49 -15 -95 -19 -245 -19 l-185 0 -3 423 -2 422 174 0 c96 0 199 -5 228 -11z m868 -49 l0 -60 -169 0 c-145 0 -170 -2 -175 -16 -3 -9 -6 -58 -6 -110 l0 -94 163 -2 162 -3 3 -62 3 -63 -166 0 -165 0 0 -120 0 -120 178 -2 177 -3 3 -59 c2 -41 -1 -62 -10 -67 -15 -10 -478 -12 -502 -3 -14 5 -16 52 -16 425 l0 419 260 0 260 0 0 -60z m581 50 c58 -11 120 -48 153 -93 17 -24 21 -43 21 -112 0 -78 -2 -86 -30 -121 -26 -31 -64 -58 -110 -78 -5 -3 -1 -13 10 -23 12 -10 31 -36 43 -58 25 -45 132 -313 132 -331 0 -13 -100 -26 -141 -17 -24 5 -32 15 -54 77 -71 191 -90 230 -125 254 -27 18 -45 22 -85 20 l-50 -3 -3 -172 c-3 -198 4 -187 -107 -181 l-60 3 -3 423 -2 422 179 0 c98 0 203 -5 232 -10z"
       id="path6681"
       style="fill-opacity:1;fill:#27336f" />
    <path
       d="M4678 2382 l-48 -3 0 -115 0 -114 68 1 c119 1 178 40 176 118 -1 39 -27 85 -54 96 -29 12 -96 20 -142 17z"
       id="path6683"
       style="fill-opacity:1;fill:#27336f" />
    <path
       d="M4630 1905 l0 -127 88 4 c130 6 172 38 172 131 -1 79 -44 107 -172 115 l-88 5 0 -128z"
       id="path6685"
       style="fill-opacity:1;fill:#27336f" />
    <path
       d="M6072 2258 l3 -123 75 1 c123 2 178 48 167 140 -8 76 -54 104 -173 104 l-75 0 3 -122z"
       id="path6687"
       style="fill-opacity:1;fill:#27336f" />
    <path
       d="M4837 994 c-16 -16 -7 -44 14 -44 15 0 20 5 17 22 -3 22 -19 33 -31 22z"
       id="path6689"
       style="fill-opacity:1;fill:#27336f" />
    <path
       d="M6260 927 c0 -41 -2 -76 -5 -79 -3 -3 -22 3 -43 14 -62 32 -120 9 -148 -59 -56 -132 69 -267 168 -181 l23 20 3 -21 c2 -13 11 -21 23 -21 18 0 19 9 19 200 0 193 -1 200 -20 200 -18 0 -20 -7 -20 -73z m-26 -120 c27 -37 27 -108 -1 -145 -29 -39 -83 -42 -112 -6 -29 37 -29 121 0 158 29 37 83 33 113 -7z"
       id="path6691"
       style="fill-opacity:1;fill:#27336f" />
    <path
       d="M3625 980 c-8 -14 3 -30 21 -30 8 0 14 9 14 20 0 21 -24 28 -35 10z"
       id="path6693"
       style="fill-opacity:1;fill:#27336f" />
    <path
       d="M5450 969 c0 -14 5 -19 17 -17 26 5 29 38 4 38 -15 0 -21 -6 -21 -21z"
       id="path6695"
       style="fill-opacity:1;fill:#27336f" />
    <path
       d="M1345 958 c-36 -13 -82 -53 -101 -90 -18 -34 -18 -129 0 -171 19 -47 68 -84 130 -98 61 -13 131 -2 131 21 0 11 -16 14 -70 15 -109 0 -159 48 -159 150 0 103 57 150 170 143 55 -3 64 -2 64 13 0 9 -7 20 -16 23 -24 9 -116 6 -149 -6z"
       id="path6697"
       style="fill-opacity:1;fill:#27336f" />
    <path
       d="M4580 785 l0 -185 100 0 c81 0 100 3 100 15 0 11 -18 15 -77 17 l-78 3 -3 168 c-2 159 -3 167 -22 167 -19 0 -20 -7 -20 -185z"
       id="path6699"
       style="fill-opacity:1;fill:#27336f" />
    <path
       d="M2475 928 c-2 -7 -5 -24 -7 -38 -2 -17 -9 -25 -23 -25 -11 0 -21 -8 -23 -17 -3 -14 3 -18 22 -18 l26 0 0 -95 c0 -88 2 -98 25 -120 25 -25 41 -30 69 -19 22 8 20 24 -2 24 -39 0 -52 31 -52 123 l0 87 36 0 c28 0 35 3 32 18 -2 11 -14 18 -36 20 -29 3 -32 6 -32 38 0 24 -5 34 -15 34 -9 0 -18 -6 -20 -12z"
       id="path6701"
       style="fill-opacity:1;fill:#27336f" />
    <path
       d="M3450 906 c0 -29 -4 -34 -31 -40 -36 -7 -35 -28 2 -36 23 -6 24 -10 29 -109 6 -115 17 -135 75 -129 36 4 41 31 7 33 -35 3 -42 21 -42 117 l0 87 33 3 c42 4 43 31 2 38 -25 4 -30 10 -33 38 -2 24 -8 32 -23 32 -15 0 -19 -7 -19 -34z"
       id="path6703"
       style="fill-opacity:1;fill:#27336f" />
    <path
       d="M5610 905 c0 -31 -3 -35 -25 -35 -15 0 -25 -6 -25 -14 0 -8 11 -17 25 -20 24 -6 25 -8 25 -102 0 -88 2 -97 25 -120 17 -17 34 -24 53 -22 33 4 37 32 4 36 -32 5 -43 42 -40 126 3 70 3 71 33 76 44 8 46 38 3 42 -29 3 -33 7 -36 36 -2 24 -8 32 -23 32 -15 0 -19 -7 -19 -35z"
       id="path6705"
       style="fill-opacity:1;fill:#27336f" />
    <path
       d="M3833 870 c-18 -4 -40 -13 -49 -20 -43 -36 -57 -128 -30 -194 34 -81 178 -89 226 -11 23 37 27 125 7 164 -23 47 -96 76 -154 61z m84 -45 c33 -23 47 -81 34 -132 -13 -47 -26 -61 -68 -69 -24 -5 -37 0 -62 23 -28 24 -32 34 -33 80 0 94 64 143 129 98z"
       id="path6707"
       style="fill-opacity:1;fill:#27336f" />
    <path
       d="M4184 868 c-12 -7 -31 -19 -43 -26 -19 -11 -21 -10 -21 8 0 15 -5 20 -17 18 -16 -3 -18 -19 -21 -136 -2 -127 -2 -132 18 -132 16 0 20 7 21 38 3 106 9 145 24 168 14 21 23 25 58 22 55 -4 67 -28 67 -140 0 -82 1 -88 21 -88 20 0 21 4 17 115 -3 99 -6 117 -23 135 -26 25 -74 34 -101 18z"
       id="path6709"
       style="fill-opacity:1;fill:#27336f" />
    <path
       d="M5851 867 c-55 -19 -76 -57 -76 -138 0 -63 3 -71 31 -99 33 -34 82 -46 138 -36 28 5 36 12 36 28 0 15 -4 18 -17 13 -66 -25 -121 -7 -143 45 -7 17 -10 33 -8 36 3 2 46 5 97 5 l91 0 0 35 c0 47 -24 90 -60 109 -34 18 -44 18 -89 2z m92 -59 c33 -45 18 -59 -60 -56 -36 2 -68 8 -70 13 -1 6 6 25 17 43 18 29 25 33 57 30 25 -2 42 -11 56 -30z"
       id="path6711"
       style="fill-opacity:1;fill:#27336f" />
    <path
       d="M1624 856 c-38 -17 -64 -69 -64 -130 0 -82 38 -125 118 -134 111 -12 178 103 125 215 -27 57 -109 79 -179 49z m113 -33 c59 -53 48 -166 -19 -194 -24 -10 -35 -9 -63 4 -59 28 -69 128 -19 182 27 30 73 33 101 8z"
       id="path6713"
       style="fill-opacity:1;fill:#27336f" />
    <path
       d="M1977 850 c-30 -24 -37 -25 -37 -5 0 20 -26 19 -34 -1 -3 -9 -6 -67 -6 -129 0 -85 3 -114 13 -118 29 -11 36 9 35 91 -2 104 17 137 78 137 52 0 64 -25 64 -137 0 -83 1 -88 21 -88 21 0 21 3 17 116 -4 107 -6 118 -27 135 -31 25 -91 25 -124 -1z"
       id="path6715"
       style="fill-opacity:1;fill:#27336f" />
    <path
       d="M2249 859 c-14 -5 -32 -21 -39 -34 -19 -35 1 -68 62 -105 60 -37 69 -57 38 -82 -19 -16 -33 -18 -67 -13 -34 5 -43 3 -43 -8 0 -31 90 -36 138 -7 25 15 32 26 32 51 0 46 -15 66 -70 94 -34 17 -50 32 -50 45 0 27 33 42 75 34 27 -5 35 -3 35 9 0 27 -58 35 -111 16z"
       id="path6717"
       style="fill-opacity:1;fill:#27336f" />
    <path
       d="M2740 863 c-8 -3 -19 -12 -23 -19 -11 -19 -27 -18 -27 1 0 8 -9 15 -20 15 -19 0 -20 -7 -20 -129 0 -120 1 -129 20 -134 19 -5 20 0 20 67 0 116 23 165 78 166 15 0 22 6 22 20 0 20 -18 25 -50 13z"
       id="path6719"
       style="fill-opacity:1;fill:#27336f" />
    <path
       d="M2845 860 c-11 -18 -3 -185 11 -217 7 -18 24 -38 38 -44 29 -14 89 -4 106 16 17 21 27 19 33 -6 3 -12 12 -19 19 -17 10 3 14 37 16 128 3 136 0 153 -23 144 -11 -5 -15 -22 -15 -73 0 -117 -23 -161 -83 -161 -45 0 -60 30 -58 123 1 46 -1 92 -5 101 -7 18 -29 22 -39 6z"
       id="path6721"
       style="fill-opacity:1;fill:#27336f" />
    <path
       d="M3230 854 c-48 -20 -73 -58 -78 -118 -5 -66 25 -115 84 -135 47 -16 114 -8 114 14 0 11 -13 15 -50 15 -42 0 -55 5 -75 26 -41 44 -38 107 7 148 27 24 37 28 74 23 37 -4 44 -2 44 13 0 33 -60 40 -120 14z"
       id="path6723"
       style="fill-opacity:1;fill:#27336f" />
    <path
       d="M3627 864 c-4 -4 -7 -65 -7 -135 0 -97 3 -128 13 -132 33 -12 38 8 35 139 -3 107 -6 129 -18 132 -9 1 -19 0 -23 -4z"
       id="path6725"
       style="fill-opacity:1;fill:#27336f" />
    <path
       d="M4830 736 c0 -130 1 -136 20 -136 20 0 20 5 18 132 -3 117 -5 133 -20 136 -16 3 -18 -8 -18 -132z"
       id="path6727"
       style="fill-opacity:1;fill:#27336f" />
    <path
       d="M4970 735 c0 -126 1 -135 19 -135 17 0 19 9 23 94 3 105 19 136 68 136 48 0 60 -26 60 -133 0 -90 1 -97 20 -97 11 0 21 6 22 13 4 28 5 55 7 115 1 70 22 102 67 102 44 0 53 -25 54 -133 0 -96 0 -98 23 -95 21 3 22 7 22 110 0 99 -2 108 -24 132 -32 34 -79 35 -119 1 l-29 -24 -23 24 c-30 31 -86 34 -123 5 -25 -20 -25 -20 -30 0 -3 11 -12 20 -21 20 -14 0 -16 -18 -16 -135z"
       id="path6729"
       style="fill-opacity:1;fill:#27336f" />
    <path
       d="M5450 735 c0 -128 1 -135 20 -135 19 0 20 7 20 135 0 128 -1 135 -20 135 -19 0 -20 -7 -20 -135z"
       id="path6731"
       style="fill-opacity:1;fill:#27336f" />
  </g>
</svg>
